<svg width="60" height="46" viewBox="0 0 60 46" fill="none" xmlns="http://www.w3.org/2000/svg">
<path d="M0 46L29 0H47V6.4L22 46" fill="#FBBC04"/>
<path d="M46.9998 46H28.9998V0H46.9998V46Z" fill="#1A73E8"/>
<path d="M59.9996 33C59.9996 40.18 54.1796 46 46.9996 46V20C54.1796 20 59.9996 25.82 59.9996 33Z" fill="#34A853"/>
<path d="M47.0001 46C39.8201 46 34.0001 40.18 34.0001 33C34.0001 25.82 39.8201 20 47.0001 20V46Z" fill="#0D652D"/>
<path d="M56.9996 10C56.9996 15.522 52.5236 20 46.9996 20V0C52.5236 0 56.9996 4.478 56.9996 10Z" fill="#1A73E8"/>
<path d="M46.9998 20C41.4758 20 36.9998 15.522 36.9998 10C36.9998 4.478 41.4758 0 46.9998 0V20Z" fill="#174EA6"/>
<path d="M0.999878 9C0.999878 4.03 5.02988 0 9.99988 0C14.9699 0 18.9999 4.03 18.9999 9C18.9999 13.97 14.9699 18 9.99988 18C5.02988 18 0.999878 13.97 0.999878 9Z" fill="#155FFF"/>
</svg>
