<svg width="60" height="59" viewBox="0 0 60 59" fill="none" xmlns="http://www.w3.org/2000/svg">
<path d="M28.9455 44.2295C16.3547 44.2295 6.23022 47.4745 6.23022 51.2388C6.23022 55.003 16.4521 58.2156 28.9455 58.2156C41.4389 58.2156 51.6608 54.9706 51.6608 51.2388C51.6608 47.507 41.5687 44.2295 28.9455 44.2295Z" fill="#D8D9DA"/>
<path d="M46.1096 35.6951V0.681152H0.776428V35.6951H19.3381V42.4772H11.0957V45.7547H35.7904V42.4772H27.548V35.6951H46.1096Z" fill="#D9B1B5"/>
<path d="M41.99 4.80273H4.89923V31.5743H41.99V4.80273Z" fill="white"/>
<path d="M41.9901 32.255H4.89935C4.71862 32.255 4.54529 32.1832 4.41749 32.0554C4.28969 31.9276 4.2179 31.7542 4.2179 31.5735V4.96417C4.2179 4.78344 4.28969 4.61011 4.41749 4.48231C4.54529 4.35451 4.71862 4.28271 4.89935 4.28271H41.9901C42.1709 4.28271 42.3442 4.35451 42.472 4.48231C42.5998 4.61011 42.6716 4.78344 42.6716 4.96417V31.7357C42.6345 31.8872 42.5467 32.0213 42.4227 32.1158C42.2986 32.2103 42.146 32.2594 41.9901 32.255ZM5.58081 30.9245H41.2762V5.51582H5.58081V30.9245Z" fill="#4C3037"/>
<path d="M46.112 0H0.681467C0.500734 0 0.327395 0.0717982 0.199596 0.199596C0.0717982 0.327395 0 0.500721 0 0.681455V35.6954C0 35.8762 0.0717982 36.0495 0.199596 36.1773C0.327395 36.3051 0.500734 36.3769 0.681467 36.3769H18.5292V41.7961H11.098C10.9142 41.7959 10.7373 41.8666 10.6044 41.9936C10.4714 42.1205 10.3925 42.2939 10.3841 42.4775V45.7226C10.384 45.8149 10.4027 45.9062 10.4389 45.9911C10.4752 46.076 10.5283 46.1526 10.5951 46.2163C10.6618 46.28 10.7408 46.3295 10.8273 46.3618C10.9137 46.3941 11.0059 46.4084 11.098 46.404H35.955C36.0472 46.4084 36.1393 46.3941 36.2258 46.3618C36.3123 46.3295 36.3913 46.28 36.458 46.2163C36.5248 46.1526 36.5779 46.076 36.6141 45.9911C36.6504 45.9062 36.669 45.8149 36.6689 45.7226V42.4775C36.6606 42.2939 36.5817 42.1205 36.4487 41.9936C36.3157 41.8666 36.1389 41.7959 35.955 41.7961H28.2643V36.3769H46.112C46.2927 36.3769 46.4661 36.3051 46.5939 36.1773C46.7217 36.0495 46.7935 35.8762 46.7935 35.6954V0.681455C46.7935 0.500721 46.7217 0.327395 46.5939 0.199596C46.4661 0.0717982 46.2927 0 46.112 0ZM35.1113 45.0736H11.7795V43.159H35.1113V45.0736ZM26.8689 41.8285H20.0219V36.4093H26.8689V41.8285ZM45.4305 35.0464H1.46027V1.36291H45.4305V35.0464Z" fill="#4C3037"/>
<path d="M56.1706 20.6382H36.96C35.2395 20.6382 33.8447 22.0329 33.8447 23.7534V47.6044C33.8447 49.3249 35.2395 50.7197 36.96 50.7197H56.1706C57.8911 50.7197 59.2858 49.3249 59.2858 47.6044V23.7534C59.2858 22.0329 57.8911 20.6382 56.1706 20.6382Z" fill="#D9B1B5"/>
<path d="M55.7813 51.4009H37.3819C36.2631 51.4009 35.1901 50.9565 34.399 50.1654C33.6078 49.3742 33.1634 48.3012 33.1634 47.1824V24.1751C33.1719 23.0589 33.6191 21.9908 34.4084 21.2015C35.1977 20.4122 36.2657 19.965 37.3819 19.9565H55.7813C56.9001 19.9565 57.9731 20.401 58.7643 21.1921C59.5554 21.9833 59.9999 23.0562 59.9999 24.1751V47.15C60.0041 47.7067 59.8982 48.2587 59.6881 48.7743C59.478 49.2899 59.168 49.7588 58.7758 50.1539C58.3836 50.5491 57.9172 50.8627 57.4032 51.0768C56.8893 51.2908 56.338 51.401 55.7813 51.4009ZM37.3819 21.3519C36.6332 21.3519 35.9151 21.6493 35.3857 22.1788C34.8562 22.7082 34.5588 23.4263 34.5588 24.1751V47.15C34.5545 47.5234 34.6243 47.894 34.7643 48.2403C34.9042 48.5866 35.1115 48.9017 35.3741 49.1673C35.6367 49.4329 35.9494 49.6437 36.294 49.7876C36.6387 49.9315 37.0084 50.0056 37.3819 50.0056H55.7813C56.159 50.0099 56.5339 49.9392 56.8841 49.7976C57.2343 49.656 57.5529 49.4464 57.8216 49.1808C58.0902 48.9152 58.3034 48.5989 58.449 48.2503C58.5945 47.9017 58.6694 47.5277 58.6694 47.15V24.1426C58.6609 23.3909 58.3562 22.6729 57.8216 22.1443C57.287 21.6158 56.5655 21.3194 55.8138 21.3195L37.3819 21.3519Z" fill="#4C3037"/>
<path d="M55.6835 24.2729H37.5112V45.5604H55.6835V24.2729Z" fill="white"/>
<path d="M55.6844 46.2735H37.5121C37.3228 46.2735 37.1412 46.1983 37.0073 46.0644C36.8734 45.9305 36.7982 45.7489 36.7982 45.5596V24.4344C36.8066 24.2507 36.8855 24.0774 37.0185 23.9504C37.1515 23.8235 37.3283 23.7527 37.5121 23.7529H55.6844C55.8625 23.7609 56.0313 23.8352 56.1574 23.9613C56.2835 24.0874 56.3579 24.2562 56.3658 24.4344V45.7218C56.3297 45.8765 56.2432 46.0147 56.1197 46.1146C55.9963 46.2145 55.8431 46.2704 55.6844 46.2735ZM38.1936 44.8781H55.0029V24.986H38.1936V44.8781Z" fill="#4C3037"/>
<path d="M48.9333 48.8048H44.1631C43.9823 48.8048 43.809 48.733 43.6812 48.6052C43.5534 48.4774 43.4816 48.3041 43.4816 48.1234C43.4816 47.9426 43.5534 47.7693 43.6812 47.6415C43.809 47.5137 43.9823 47.4419 44.1631 47.4419H48.9333C49.114 47.4419 49.2874 47.5137 49.4152 47.6415C49.543 47.7693 49.6147 47.9426 49.6147 48.1234C49.6147 48.3041 49.543 48.4774 49.4152 48.6052C49.2874 48.733 49.114 48.8048 48.9333 48.8048Z" fill="#4C3037"/>
<path d="M37.6412 8.69629H9.24707V14.4725H37.6412V8.69629Z" fill="#D9B1B5"/>
<path d="M37.642 15.122H9.24796C9.06723 15.122 8.89389 15.0502 8.76609 14.9224C8.63829 14.7946 8.56651 14.6213 8.56651 14.4405V8.69682C8.56211 8.60464 8.57648 8.51251 8.60876 8.42605C8.64103 8.33959 8.69054 8.2606 8.75426 8.19385C8.81798 8.12709 8.89459 8.07396 8.97945 8.0377C9.06432 8.00144 9.15568 7.98281 9.24796 7.98291H37.642C37.7343 7.98281 37.8257 8.00144 37.9105 8.0377C37.9954 8.07396 38.072 8.12709 38.1358 8.19385C38.1995 8.2606 38.249 8.33959 38.2813 8.42605C38.3135 8.51251 38.3279 8.60464 38.3235 8.69682V14.4405C38.3235 14.6213 38.2517 14.7946 38.1239 14.9224C37.9961 15.0502 37.8228 15.122 37.642 15.122ZM9.99432 13.7591H37.0255V9.37828H9.99432V13.7591Z" fill="#4C3037"/>
<path d="M52.2123 27.8418H40.9844V31.5411H52.2123V27.8418Z" fill="#D9B1B5"/>
<path d="M52.1775 32.2226H40.9822C40.8014 32.2226 40.6281 32.1508 40.5003 32.023C40.3725 31.8952 40.3007 31.7219 40.3007 31.5412V27.8418C40.2963 27.7497 40.3107 27.6575 40.3429 27.5711C40.3752 27.4846 40.4247 27.4056 40.4884 27.3388C40.5522 27.2721 40.6288 27.219 40.7137 27.1827C40.7985 27.1465 40.8899 27.1278 40.9822 27.1279H52.1775C52.3612 27.1363 52.5346 27.2152 52.6615 27.3481C52.7884 27.4811 52.8592 27.658 52.859 27.8418V31.5412C52.8511 31.7194 52.7767 31.8881 52.6506 32.0142C52.5245 32.1403 52.3557 32.2147 52.1775 32.2226ZM41.6636 30.9246H51.3987V28.5882H41.6636V30.9246Z" fill="#4C3037"/>
<path d="M17.5868 17.8477H9.24707V27.6801H17.5868V17.8477Z" fill="#D9B1B5"/>
<path d="M17.5869 28.3934H9.24719C9.06646 28.3934 8.89312 28.3216 8.76532 28.1938C8.63752 28.066 8.56573 27.8927 8.56573 27.712V17.9769C8.56573 17.7961 8.63752 17.6228 8.76532 17.495C8.89312 17.3672 9.06646 17.2954 9.24719 17.2954H17.5869C17.7708 17.2952 17.9476 17.366 18.0806 17.4929C18.2136 17.6198 18.2925 17.7932 18.3009 17.9769V27.712C18.2925 27.8956 18.2136 28.069 18.0806 28.1959C17.9476 28.3229 17.7708 28.3936 17.5869 28.3934ZM9.99355 27.0305H16.9704V18.561H9.99355V27.0305Z" fill="#4C3037"/>
<path d="M30.2409 18.5619H21.2846C21.1252 18.5273 20.9825 18.4392 20.8801 18.3123C20.7778 18.1854 20.722 18.0272 20.722 17.8642C20.722 17.7011 20.7778 17.543 20.8801 17.4161C20.9825 17.2891 21.1252 17.2011 21.2846 17.1665H30.2409C30.4002 17.2011 30.5429 17.2891 30.6453 17.4161C30.7476 17.543 30.8034 17.7011 30.8034 17.8642C30.8034 18.0272 30.7476 18.1854 30.6453 18.3123C30.5429 18.4392 30.4002 18.5273 30.2409 18.5619Z" fill="#4C3037"/>
<path d="M30.2425 21.8712H21.2862C21.108 21.8633 20.9392 21.7889 20.8131 21.6628C20.687 21.5367 20.6127 21.3679 20.6047 21.1898C20.6047 21.009 20.6765 20.8357 20.8043 20.7079C20.9321 20.5801 21.1055 20.5083 21.2862 20.5083H30.2425C30.4232 20.5083 30.5966 20.5801 30.7244 20.7079C30.8522 20.8357 30.924 21.009 30.924 21.1898C30.916 21.3679 30.8417 21.5367 30.7156 21.6628C30.5894 21.7889 30.4207 21.8633 30.2425 21.8712Z" fill="#4C3037"/>
<path d="M30.2425 25.1808H21.2862C21.108 25.1729 20.9392 25.0985 20.8131 24.9724C20.687 24.8463 20.6127 24.6775 20.6047 24.4993C20.6047 24.3186 20.6765 24.1453 20.8043 24.0175C20.9321 23.8897 21.1055 23.8179 21.2862 23.8179H30.2425C30.4232 23.8179 30.5966 23.8897 30.7244 24.0175C30.8522 24.1453 30.924 24.3186 30.924 24.4993C30.916 24.6775 30.8417 24.8463 30.7156 24.9724C30.5894 25.0985 30.4207 25.1729 30.2425 25.1808Z" fill="#4C3037"/>
<path d="M28.0034 28.3937H21.2862C21.108 28.3857 20.9392 28.3114 20.8131 28.1853C20.687 28.0592 20.6127 27.8904 20.6047 27.7122C20.6047 27.5315 20.6765 27.3582 20.8043 27.2304C20.9321 27.1026 21.1055 27.0308 21.2862 27.0308H28.0034C28.1842 27.0308 28.3575 27.1026 28.4853 27.2304C28.6131 27.3582 28.6849 27.5315 28.6849 27.7122C28.6849 27.893 28.6131 28.0663 28.4853 28.1941C28.3575 28.3219 28.1842 28.3937 28.0034 28.3937Z" fill="#4C3037"/>
<path d="M52.6002 35.7921H40.918C40.7373 35.7921 40.564 35.7203 40.4362 35.5925C40.3084 35.4647 40.2366 35.2914 40.2366 35.1107C40.2366 34.9299 40.3084 34.7566 40.4362 34.6288C40.564 34.501 40.7373 34.4292 40.918 34.4292H52.6002C52.7809 34.4292 52.9542 34.501 53.082 34.6288C53.2098 34.7566 53.2816 34.9299 53.2816 35.1107C53.2816 35.2914 53.2098 35.4647 53.082 35.5925C52.9542 35.7203 52.7809 35.7921 52.6002 35.7921Z" fill="#4C3037"/>
<path d="M52.6009 39.2645H40.9188C40.7381 39.2645 40.5647 39.1927 40.4369 39.0649C40.3091 38.9371 40.2373 38.7638 40.2373 38.5831C40.233 38.4909 40.2473 38.3988 40.2796 38.3123C40.3119 38.2258 40.3614 38.1468 40.4251 38.0801C40.4888 38.0133 40.5654 37.9602 40.6503 37.9239C40.7352 37.8877 40.8265 37.869 40.9188 37.8691H52.6009C52.6932 37.869 52.7846 37.8877 52.8694 37.9239C52.9543 37.9602 53.0309 38.0133 53.0947 38.0801C53.1584 38.1468 53.2079 38.2258 53.2402 38.3123C53.2724 38.3988 53.2868 38.4909 53.2824 38.5831C53.2824 38.7638 53.2106 38.9371 53.0828 39.0649C52.955 39.1927 52.7817 39.2645 52.6009 39.2645Z" fill="#4C3037"/>
<path d="M49.5831 42.7368H40.9188C40.8265 42.7369 40.7352 42.7183 40.6503 42.682C40.5654 42.6457 40.4888 42.5926 40.4251 42.5258C40.3614 42.4591 40.3119 42.3801 40.2796 42.2936C40.2473 42.2072 40.233 42.1151 40.2373 42.0229C40.2373 41.8421 40.3091 41.6688 40.4369 41.541C40.5647 41.4132 40.7381 41.3414 40.9188 41.3414H49.5831C49.6872 41.3188 49.7951 41.3198 49.8989 41.3444C50.0026 41.369 50.0995 41.4164 50.1825 41.4834C50.2655 41.5503 50.3324 41.6349 50.3784 41.7311C50.4244 41.8272 50.4483 41.9325 50.4483 42.0391C50.4483 42.1457 50.4244 42.251 50.3784 42.3471C50.3324 42.4433 50.2655 42.5279 50.1825 42.5948C50.0995 42.6618 50.0026 42.7092 49.8989 42.7338C49.7951 42.7584 49.6872 42.7594 49.5831 42.7368Z" fill="#4C3037"/>
</svg>
