<svg width="60" height="58" viewBox="0 0 60 58" fill="none" xmlns="http://www.w3.org/2000/svg">
<path d="M29.8735 41.4736C15.8072 41.4736 4.49622 45.099 4.49622 49.3043C4.49622 53.5097 15.916 57.0988 29.8735 57.0988C43.831 57.0988 55.2508 53.4735 55.2508 49.3043C55.2508 45.1352 43.9398 41.4736 29.8735 41.4736Z" fill="#D8D9DA"/>
<path d="M59.2377 0.797363H0.76123V7.86675H59.2377V0.797363Z" fill="white"/>
<path d="M5.43852 5.11166C5.33542 5.1084 5.23405 5.08424 5.14057 5.04061C5.04709 4.99699 4.96344 4.93482 4.89472 4.85788C4.82264 4.78735 4.76607 4.70256 4.72861 4.60892C4.69116 4.51529 4.67365 4.41488 4.67721 4.31409C4.67813 4.1118 4.75587 3.91741 4.89472 3.77029C5.04236 3.63268 5.23669 3.55615 5.43852 3.55615C5.64035 3.55615 5.83468 3.63268 5.98233 3.77029C6.12117 3.91741 6.19892 4.1118 6.19984 4.31409C6.20339 4.41488 6.18589 4.51529 6.14843 4.60892C6.11098 4.70256 6.05441 4.78735 5.98233 4.85788C5.83884 5.00703 5.645 5.09748 5.43852 5.11166Z" fill="#3D2139"/>
<path d="M8.73755 4.31406C8.74641 4.115 8.82947 3.92645 8.97037 3.78555C9.11127 3.64465 9.2998 3.56159 9.49886 3.55273C9.70078 3.55273 9.89443 3.63295 10.0372 3.77572C10.18 3.9185 10.2602 4.11215 10.2602 4.31406C10.2651 4.41705 10.249 4.51995 10.213 4.61654C10.1769 4.71314 10.1216 4.8014 10.0504 4.87598C9.97925 4.95056 9.89365 5.00991 9.79884 5.05042C9.70403 5.09092 9.60197 5.11174 9.49886 5.11163C9.29368 5.10229 9.10001 5.01416 8.95819 4.86558C8.81636 4.71701 8.73734 4.51946 8.73755 4.31406Z" fill="#3D2139"/>
<path d="M13.5955 5.11166C13.4924 5.1084 13.391 5.08424 13.2975 5.04061C13.2041 4.99699 13.1204 4.93482 13.0517 4.85788C12.9796 4.78735 12.923 4.70256 12.8856 4.60892C12.8481 4.51529 12.8306 4.41488 12.8342 4.31409C12.8351 4.1118 12.9129 3.91741 13.0517 3.77029C13.1993 3.63268 13.3937 3.55615 13.5955 3.55615C13.7973 3.55615 13.9917 3.63268 14.1393 3.77029C14.2782 3.91741 14.3559 4.1118 14.3568 4.31409C14.3604 4.41488 14.3429 4.51529 14.3054 4.60892C14.268 4.70256 14.2114 4.78735 14.1393 4.85788C13.9958 5.00703 13.802 5.09748 13.5955 5.11166Z" fill="#3D2139"/>
<path d="M59.2377 7.83057H0.76123V46.6941H59.2377V7.83057Z" fill="#AA8FA2"/>
<path d="M59.2387 4.89794e-07H0.762179C0.659076 -0.000116477 0.557029 0.020717 0.462217 0.0612238C0.367404 0.101731 0.281806 0.161075 0.210616 0.235655C0.139426 0.310236 0.0841195 0.39849 0.0480641 0.495083C0.0120086 0.591677 -0.0040458 0.694591 0.000863934 0.797576V7.8307V46.6217C0.000863934 46.8236 0.0810762 47.0172 0.223851 47.16C0.366626 47.3028 0.560265 47.383 0.762179 47.383H59.2387C59.4406 47.383 59.6342 47.3028 59.777 47.16C59.9198 47.0172 60 46.8236 60 46.6217V7.86696V0.797576C60.0002 0.592181 59.9212 0.394615 59.7794 0.246041C59.6375 0.0974676 59.4439 0.00933653 59.2387 4.89794e-07ZM58.4411 1.55889V7.03314H1.52349V1.55889H58.4411ZM1.52349 45.8966V8.62828H58.4411V45.8966H1.52349Z" fill="#3D2139"/>
<path d="M29.9826 13.3774L13.8499 25.2322H17.4752V40.2774H21.8981V28.0963H28.0611V40.2774H42.8525V25.2322H46.4778L29.9826 13.3774ZM38.357 34.2956H32.194V28.0963H38.357V34.2956Z" fill="white"/>
<path d="M42.853 41.0384H27.8079C27.606 41.0384 27.4124 40.9582 27.2696 40.8154C27.1268 40.6727 27.0466 40.479 27.0466 40.2771V28.8936H22.4062V40.2771C22.3973 40.4762 22.3143 40.6647 22.1734 40.8056C22.0325 40.9465 21.844 41.0296 21.6449 41.0384H17.222C17.0201 41.0384 16.8264 40.9582 16.6837 40.8154C16.5409 40.6727 16.4607 40.479 16.4607 40.2771V25.9933H13.8504C13.693 25.9898 13.5401 25.9397 13.411 25.8493C13.282 25.759 13.1826 25.6325 13.1254 25.4858C13.066 25.3295 13.0625 25.1576 13.1153 24.999C13.1682 24.8405 13.2742 24.7051 13.4154 24.6157L29.5481 12.8334C29.6767 12.7304 29.8365 12.6743 30.0013 12.6743C30.166 12.6743 30.3258 12.7304 30.4544 12.8334L46.7684 24.6882C46.8984 24.7869 46.9932 24.9247 47.0389 25.0814C47.0845 25.238 47.0787 25.4052 47.0222 25.5583C46.9693 25.7079 46.871 25.8372 46.741 25.9282C46.611 26.0192 46.4558 26.0673 46.2971 26.0658H43.5418V40.3496C43.5193 40.5244 43.4394 40.6868 43.3148 40.8114C43.1902 40.936 43.0278 41.0158 42.853 41.0384ZM28.6418 39.4795H42.0917V25.232C42.0917 25.0301 42.1719 24.8364 42.3147 24.6937C42.4575 24.5509 42.6511 24.4707 42.853 24.4707H44.0131L30.0556 14.3198L16.0981 24.4707H17.2945C17.4964 24.4707 17.69 24.5509 17.8328 24.6937C17.9756 24.8364 18.0558 25.0301 18.0558 25.232V39.4795H20.9198V28.096C20.9292 27.8908 21.0173 27.6972 21.1659 27.5553C21.3144 27.4135 21.512 27.3345 21.7174 27.3347H27.8804C28.0823 27.3347 28.276 27.4149 28.4188 27.5577C28.5616 27.7004 28.6418 27.8941 28.6418 28.096V39.4795ZM38.4301 35.0566H32.2671C32.1641 35.0615 32.0612 35.0455 31.9646 35.0094C31.868 34.9734 31.7797 34.9181 31.7052 34.8469C31.6306 34.7757 31.5712 34.6901 31.5307 34.5953C31.4902 34.5005 31.4694 34.3984 31.4695 34.2953V28.096C31.4788 27.8908 31.567 27.6972 31.7156 27.5553C31.8641 27.4135 32.0617 27.3345 32.2671 27.3347H38.4301C38.632 27.3347 38.8257 27.4149 38.9685 27.5577C39.1112 27.7004 39.1915 27.8941 39.1915 28.096V34.2953C39.1919 34.4017 39.1701 34.507 39.1274 34.6044C39.0847 34.7019 39.022 34.7893 38.9435 34.861C38.8649 34.9327 38.7722 34.9872 38.6713 35.0209C38.5704 35.0546 38.4635 35.0668 38.3576 35.0566H38.4301ZM33.0284 33.534H37.6688V28.8936H32.9559L33.0284 33.534Z" fill="#3D2139"/>
</svg>
