<svg width="51" height="60" viewBox="0 0 51 60" fill="none" xmlns="http://www.w3.org/2000/svg">
<path d="M22.976 45.8535C10.2407 45.8535 0 49.1358 0 52.9433C0 56.7507 10.3392 60.0002 22.976 60.0002C35.6127 60.0002 45.9519 56.7179 45.9519 52.9433C45.9519 49.1686 35.7112 45.8535 22.976 45.8535Z" fill="#D8D9DA"/>
<path d="M36.9262 0.722168H9.55201C6.90539 0.722168 4.75989 2.86767 4.75989 5.51429V47.1336C4.75989 49.7802 6.90539 51.9257 9.55201 51.9257H36.9262C39.5729 51.9257 41.7184 49.7802 41.7184 47.1336V5.51429C41.7184 2.86767 39.5729 0.722168 36.9262 0.722168Z" fill="#E66673"/>
<path d="M36.9264 52.615H9.5522C8.83237 52.615 8.11959 52.4732 7.45455 52.1977C6.78952 51.9222 6.18525 51.5185 5.67626 51.0095C5.16726 50.5005 4.76351 49.8962 4.48805 49.2312C4.21258 48.5662 4.0708 47.8534 4.0708 47.1335V5.48143C4.0708 4.7616 4.21258 4.04881 4.48805 3.38377C4.76351 2.71874 5.16726 2.11448 5.67626 1.60548C6.18525 1.09648 6.78952 0.692713 7.45455 0.417247C8.11959 0.14178 8.83237 0 9.5522 0H36.9264C37.6463 0 38.359 0.14178 39.0241 0.417247C39.6891 0.692713 40.2934 1.09648 40.8024 1.60548C41.3113 2.11448 41.7151 2.71874 41.9906 3.38377C42.2661 4.04881 42.4078 4.7616 42.4078 5.48143V47.1335C42.4078 47.8534 42.2661 48.5662 41.9906 49.2312C41.7151 49.8962 41.3113 50.5005 40.8024 51.0095C40.2934 51.5185 39.6891 51.9222 39.0241 52.1977C38.359 52.4732 37.6463 52.615 36.9264 52.615ZM9.5522 1.41138C8.47276 1.41138 7.43753 1.84019 6.67425 2.60347C5.91097 3.36675 5.48218 4.40199 5.48218 5.48143V47.1335C5.48218 48.213 5.91097 49.2482 6.67425 50.0115C7.43753 50.7748 8.47276 51.2036 9.5522 51.2036H36.9264C38.0089 51.2036 39.0475 50.7758 39.816 50.0135C40.5845 49.2512 41.0206 48.216 41.0293 47.1335V5.48143C41.0206 4.39898 40.5845 3.36382 39.816 2.60147C39.0475 1.83912 38.0089 1.41135 36.9264 1.41138H9.5522Z" fill="#3F232C"/>
<path d="M36.9264 7.54932H9.55212V45.0658H36.9264V7.54932Z" fill="white"/>
<path d="M36.9262 45.7552H9.55195C9.36914 45.7552 9.19382 45.6825 9.06456 45.5533C8.93529 45.424 8.86267 45.2487 8.86267 45.0659V7.54943C8.86267 7.36662 8.93529 7.19131 9.06456 7.06204C9.19382 6.93278 9.36914 6.86016 9.55195 6.86016H36.9262C37.0194 6.85571 37.1126 6.87026 37.2 6.9029C37.2875 6.93555 37.3674 6.98559 37.4349 7.05005C37.5024 7.1145 37.5562 7.19201 37.5928 7.27785C37.6295 7.3637 37.6484 7.45609 37.6483 7.54943V45.0659C37.6484 45.1592 37.6295 45.2516 37.5928 45.3375C37.5562 45.4233 37.5024 45.5008 37.4349 45.5653C37.3674 45.6297 37.2875 45.6798 37.2 45.7124C37.1126 45.7451 37.0194 45.7596 36.9262 45.7552ZM10.1428 44.3766H36.401V8.27154H10.1428V44.3766Z" fill="#3F232C"/>
<path d="M18.1841 49.2014H16.4445C16.3512 49.2015 16.2588 49.1827 16.173 49.146C16.0871 49.1093 16.0096 49.0556 15.9452 48.9881C15.8807 48.9205 15.8307 48.8406 15.798 48.7532C15.7654 48.6657 15.7508 48.5726 15.7553 48.4793C15.7553 48.2965 15.8279 48.1212 15.9572 47.9919C16.0864 47.8627 16.2617 47.79 16.4445 47.79H18.1841C18.367 47.79 18.5423 47.8627 18.6716 47.9919C18.8008 48.1212 18.8734 48.2965 18.8734 48.4793C18.8779 48.5726 18.8633 48.6657 18.8307 48.7532C18.7981 48.8406 18.748 48.9205 18.6835 48.9881C18.6191 49.0556 18.5416 49.1093 18.4558 49.146C18.3699 49.1827 18.2775 49.2015 18.1841 49.2014Z" fill="#3F232C"/>
<path d="M24.8492 49.2014H21.8295C21.7362 49.2015 21.6438 49.1827 21.5579 49.146C21.4721 49.1093 21.3946 49.0556 21.3302 48.9881C21.2657 48.9205 21.2156 48.8406 21.183 48.7532C21.1503 48.6657 21.1358 48.5726 21.1402 48.4793C21.1402 48.2965 21.2129 48.1212 21.3421 47.9919C21.4714 47.8627 21.6467 47.79 21.8295 47.79H24.8492C25.032 47.79 25.2074 47.8627 25.3366 47.9919C25.4659 48.1212 25.5385 48.2965 25.5385 48.4793C25.543 48.5726 25.5284 48.6657 25.4958 48.7532C25.4631 48.8406 25.4131 48.9205 25.3486 48.9881C25.2841 49.0556 25.2067 49.1093 25.1208 49.146C25.035 49.1827 24.9426 49.2015 24.8492 49.2014Z" fill="#3F232C"/>
<path d="M30.2298 49.2014H28.4902C28.3968 49.2015 28.3044 49.1827 28.2186 49.146C28.1327 49.1093 28.0553 49.0556 27.9908 48.9881C27.9264 48.9205 27.8763 48.8406 27.8436 48.7532C27.811 48.6657 27.7964 48.5726 27.8009 48.4793C27.8009 48.2965 27.8735 48.1212 28.0028 47.9919C28.132 47.8627 28.3074 47.79 28.4902 47.79H30.2298C30.4126 47.79 30.5879 47.8627 30.7172 47.9919C30.8465 48.1212 30.9191 48.2965 30.9191 48.4793C30.9235 48.5726 30.909 48.6657 30.8763 48.7532C30.8437 48.8406 30.7936 48.9205 30.7292 48.9881C30.6647 49.0556 30.5872 49.1093 30.5014 49.146C30.4155 49.1827 30.3231 49.2015 30.2298 49.2014Z" fill="#3F232C"/>
<path d="M26.2911 4.82484H20.383C20.2002 4.82484 20.0249 4.75222 19.8956 4.62295C19.7663 4.49369 19.6937 4.31837 19.6937 4.13556C19.6937 3.95276 19.7663 3.77744 19.8956 3.64818C20.0249 3.51891 20.2002 3.44629 20.383 3.44629H26.2911C26.4739 3.44629 26.6492 3.51891 26.7785 3.64818C26.9077 3.77744 26.9804 3.95276 26.9804 4.13556C26.9804 4.31837 26.9077 4.49369 26.7785 4.62295C26.6492 4.75222 26.4739 4.82484 26.2911 4.82484Z" fill="#3F232C"/>
<path d="M49.0703 29.1138C49.2589 29.2973 49.4088 29.5168 49.5111 29.7592C49.6135 30.0016 49.6662 30.2621 49.6662 30.5252C49.6662 30.7883 49.6135 31.0488 49.5111 31.2912C49.4088 31.5336 49.2589 31.7531 49.0703 31.9366L43.2278 37.779C43.0443 37.9676 42.8249 38.1175 42.5825 38.2198C42.3401 38.3222 42.0796 38.3749 41.8165 38.3749C41.5533 38.3749 41.2929 38.3222 41.0505 38.2198C40.8081 38.1175 40.5886 37.9676 40.4051 37.779C40.0422 37.4054 39.8391 36.905 39.8391 36.384C39.8391 35.8631 40.0422 35.3628 40.4051 34.9891L46.2475 29.1138C46.6227 28.741 47.1301 28.5317 47.6589 28.5317C48.1878 28.5317 48.6952 28.741 49.0703 29.1138Z" fill="#E66673"/>
<path d="M41.8174 38.9606C41.4639 38.9607 41.1138 38.8912 40.7872 38.756C40.4605 38.6209 40.1637 38.4227 39.9137 38.1728C39.6646 37.9257 39.4668 37.6317 39.3319 37.3077C39.197 36.9838 39.1276 36.6364 39.1276 36.2855C39.1276 35.9346 39.197 35.5872 39.3319 35.2633C39.4668 34.9393 39.6646 34.6453 39.9137 34.3982L45.7889 28.5229C46.0361 28.2738 46.3301 28.0761 46.654 27.9412C46.9779 27.8063 47.3253 27.7368 47.6762 27.7368C48.0271 27.7368 48.3746 27.8063 48.6985 27.9412C49.0224 28.0761 49.3164 28.2738 49.5636 28.5229C49.8215 28.7761 50.0258 29.0787 50.1643 29.4126C50.3028 29.7466 50.3725 30.105 50.3695 30.4664C50.3664 30.8279 50.2906 31.185 50.1465 31.5166C50.0024 31.8481 49.793 32.1472 49.5307 32.396L43.6883 38.2384C43.181 38.7112 42.5107 38.9699 41.8174 38.9606ZM47.6927 29.1137C47.5225 29.1041 47.3522 29.1313 47.1936 29.1936C47.035 29.256 46.8917 29.3519 46.7736 29.4748L40.8983 35.3501C40.6598 35.5899 40.5259 35.9144 40.5259 36.2527C40.5259 36.5909 40.6598 36.9154 40.8983 37.1553C41.0177 37.2784 41.1605 37.3762 41.3184 37.4431C41.4762 37.5099 41.6459 37.5443 41.8174 37.5443C41.9888 37.5443 42.1585 37.5099 42.3164 37.4431C42.4742 37.3762 42.6171 37.2784 42.7364 37.1553L48.5789 31.3128C48.7019 31.1935 48.7998 31.0507 48.8666 30.8928C48.9335 30.7349 48.9679 30.5652 48.9679 30.3938C48.9679 30.2224 48.9335 30.0527 48.8666 29.8948C48.7998 29.7369 48.7019 29.5941 48.5789 29.4748C48.4658 29.3544 48.3281 29.2599 48.1751 29.1976C48.0222 29.1353 47.8577 29.1067 47.6927 29.1137Z" fill="#3F232C"/>
<path d="M45.0664 25.044L36.0073 15.9849C35.7151 15.7554 35.3716 15.6002 35.0063 15.5325C34.6409 15.4649 34.2646 15.4869 33.9096 15.5966C33.5546 15.7064 33.2315 15.9005 32.968 16.1625C32.7045 16.4245 32.5085 16.7465 32.3968 17.1009C31.9681 16.8236 31.4573 16.7017 30.9496 16.7554C30.4419 16.8092 29.968 17.0354 29.6069 17.3963C29.4029 17.5919 29.2399 17.8261 29.1272 18.0853C29.0145 18.3445 28.9544 18.6235 28.9504 18.9061C28.6016 18.8593 28.2466 18.891 27.9116 18.9989C27.5766 19.1068 27.2699 19.2882 27.0139 19.5298C26.7661 19.7816 26.5807 20.0878 26.4724 20.4241C26.3641 20.7603 26.336 21.1172 26.3902 21.4663L19.9898 15.1643C19.6051 14.7972 19.0938 14.5923 18.562 14.5923C18.0302 14.5923 17.5189 14.7972 17.1342 15.1643C16.7594 15.545 16.5493 16.0579 16.5493 16.5921C16.5493 17.1264 16.7594 17.6392 17.1342 18.0199L28.9504 29.8361C27.6956 30.5171 26.5817 31.4304 25.6682 32.5276C24.027 34.497 23.666 36.5648 24.6178 37.5823C25.0226 38.123 25.5674 38.5429 26.1933 38.7967C27.001 37.5655 27.9853 36.4596 29.1145 35.5145C32.1014 34.0046 36.7951 34.6283 37.9439 33.4795L44.1802 27.276L44.41 27.0462L44.9023 26.521C45.0229 26.4447 45.1247 26.3422 45.2003 26.2212C45.276 26.1002 45.3234 25.9638 45.3392 25.8219C45.3549 25.6801 45.3386 25.5366 45.2914 25.4019C45.2442 25.2673 45.1673 25.1449 45.0664 25.044Z" fill="#E66673"/>
<path d="M26.3592 39.5188C25.6046 39.2531 24.9433 38.7742 24.4554 38.1403C23.2082 36.7945 23.602 34.3657 25.4401 32.1665C26.2121 31.2374 27.1194 30.4297 28.1316 29.7704L16.7092 18.5779C16.4554 18.324 16.2549 18.0218 16.1197 17.6892C15.9844 17.3566 15.917 17.0003 15.9215 16.6413C15.9138 16.2868 15.9798 15.9345 16.1154 15.6068C16.251 15.279 16.4532 14.9831 16.7092 14.7376C16.9571 14.4848 17.2535 14.2846 17.5806 14.1492C17.9078 14.0139 18.2589 13.946 18.613 13.9499C18.967 13.946 19.3182 14.0139 19.6453 14.1492C19.9725 14.2846 20.2689 14.4848 20.5167 14.7376L25.7027 19.9236C25.8605 19.5861 26.071 19.2759 26.3263 19.0046C26.8208 18.5146 27.471 18.2128 28.1644 18.1512C28.2658 17.7688 28.4438 17.411 28.6876 17.0995C28.9315 16.788 29.236 16.5292 29.5828 16.3389C29.9297 16.1487 30.3115 16.0308 30.7052 15.9925C31.099 15.9542 31.4964 15.9963 31.8734 16.1162C31.9971 15.9269 32.1401 15.7509 32.3001 15.591C32.8094 15.0651 33.4994 14.7523 34.2306 14.7157C34.9618 14.6792 35.6796 14.9216 36.2388 15.3941L45.2979 24.4532C45.6121 24.7663 45.7892 25.1912 45.7902 25.6348C45.7954 25.8552 45.7543 26.0743 45.6695 26.2778C45.5847 26.4814 45.4581 26.6649 45.2979 26.8164L38.3395 33.7748C37.1645 34.5218 35.7924 34.8991 34.4007 34.858C32.6657 34.9225 30.9551 35.289 29.346 35.9412C28.2797 36.8848 27.371 37.9929 26.6545 39.2234C26.5873 39.3489 26.4846 39.4516 26.3592 39.5188ZM17.7267 17.5276L29.543 29.3438C29.6178 29.4213 29.6743 29.5146 29.7084 29.6168C29.7425 29.7191 29.7532 29.8276 29.7399 29.9346C29.7216 30.0389 29.6795 30.1375 29.6168 30.2229C29.5542 30.3083 29.4728 30.3781 29.3788 30.4269C28.2219 31.0987 27.1893 31.9648 26.3263 32.9871C24.9806 34.5954 24.5211 36.2694 25.276 37.1228C25.5207 37.4041 25.7959 37.6573 26.0966 37.8777C26.8456 36.6786 27.8145 35.6318 28.9522 34.7924C30.7104 34.0392 32.5888 33.6057 34.4992 33.5122C35.5636 33.5246 36.6174 33.3004 37.5845 32.8558L44.5758 25.8317C44.5931 25.8018 44.6022 25.7678 44.6022 25.7333C44.6022 25.6987 44.5931 25.6647 44.5758 25.6348C44.6013 25.5716 44.6013 25.501 44.5758 25.4378L35.4839 16.3788C35.2039 16.1157 34.8342 15.9692 34.45 15.9692C34.0658 15.9692 33.696 16.1157 33.416 16.3788C33.2174 16.5494 33.0793 16.7797 33.0222 17.0352C32.9938 17.1412 32.9406 17.2389 32.8668 17.3201C32.7931 17.4014 32.7011 17.4639 32.5983 17.5024C32.4956 17.5409 32.3852 17.5544 32.2762 17.5416C32.1673 17.5289 32.0629 17.4903 31.9719 17.4291C31.6756 17.2344 31.3213 17.1477 30.9686 17.1836C30.6159 17.2194 30.2863 17.3757 30.0353 17.626C29.8895 17.7592 29.7733 17.9215 29.6941 18.1024C29.6149 18.2833 29.5746 18.4789 29.5758 18.6764C29.576 18.7737 29.5521 18.8696 29.5063 18.9555C29.4605 19.0414 29.3941 19.1146 29.3132 19.1687C29.2316 19.2092 29.1417 19.2303 29.0506 19.2303C28.9595 19.2303 28.8696 19.2092 28.788 19.1687C28.5463 19.129 28.2986 19.1474 28.0654 19.2224C27.8322 19.2974 27.6202 19.4269 27.447 19.6001C27.2738 19.7733 27.1443 19.9853 27.0693 20.2185C26.9943 20.4517 26.9759 20.6994 27.0156 20.9411C27.0342 21.0838 27.0097 21.2287 26.9454 21.3574C26.8811 21.486 26.7798 21.5925 26.6545 21.6632C26.5323 21.7424 26.3899 21.7844 26.2443 21.7844C26.0987 21.7844 25.9562 21.7424 25.834 21.6632L19.6633 15.4597C19.4104 15.2326 19.0841 15.1044 18.7443 15.0987C18.5672 15.0968 18.3917 15.1307 18.2281 15.1983C18.0645 15.266 17.9163 15.3661 17.7924 15.4925C17.6669 15.6103 17.5671 15.7527 17.4993 15.9109C17.4316 16.069 17.3972 16.2395 17.3985 16.4116C17.3612 16.6103 17.3715 16.815 17.4285 17.009C17.4856 17.203 17.5878 17.3807 17.7267 17.5276Z" fill="#3F232C"/>
<path d="M16.7066 22.057C15.8127 21.7076 15.0199 21.1409 14.4 20.4082C13.78 19.6755 13.3523 18.7999 13.1557 17.8604C12.959 16.921 12.9995 15.9474 13.2735 15.0275C13.5475 14.1077 14.0464 13.2706 14.7251 12.5919C15.4038 11.9132 16.2408 11.4143 17.1607 11.1403C18.0805 10.8663 19.0542 10.8258 19.9936 11.0225C20.9331 11.2191 21.8087 11.6468 22.5414 12.2668C23.2741 12.8868 23.8407 13.6795 24.1902 14.5734C24.2545 14.7432 24.2492 14.9316 24.1755 15.0975C24.1017 15.2635 23.9655 15.3936 23.7963 15.4596C23.7104 15.4966 23.6179 15.5158 23.5243 15.5159C23.4308 15.5159 23.3382 15.497 23.2522 15.4601C23.1662 15.4233 23.0887 15.3693 23.0242 15.3015C22.9598 15.2337 22.9098 15.1535 22.8773 15.0658C22.5634 14.2418 22.0055 13.5333 21.2783 13.0348C20.551 12.5363 19.689 12.2715 18.8073 12.2758C17.7733 12.2553 16.7656 12.6025 15.9638 13.2556C15.1619 13.9087 14.618 14.8252 14.4288 15.8419C14.2396 16.8586 14.4176 17.9095 14.9309 18.8073C15.4442 19.705 16.2596 20.3914 17.2318 20.7441C17.4009 20.8102 17.5372 20.9403 17.6109 21.1062C17.6847 21.2722 17.69 21.4605 17.6256 21.6303C17.5591 21.8079 17.4255 21.9521 17.2535 22.0319C17.0816 22.1118 16.8851 22.1208 16.7066 22.057Z" fill="#3F232C"/>
<path d="M26.1594 41.7837C24.8793 41.7822 23.636 41.3556 22.6246 40.5708C21.6133 39.786 20.8912 38.6875 20.5719 37.4479C20.2526 36.2082 20.3541 34.8976 20.8605 33.7219C21.3668 32.5462 22.2494 31.5719 23.3695 30.9522C23.4489 30.9057 23.5369 30.8757 23.6281 30.8637C23.7194 30.8518 23.8121 30.8582 23.9008 30.8827C23.9895 30.9072 24.0725 30.9492 24.1447 31.0062C24.2169 31.0633 24.277 31.1342 24.3213 31.2148C24.4038 31.381 24.4192 31.5726 24.3642 31.7499C24.3092 31.9271 24.1881 32.0764 24.026 32.1667C23.4142 32.5442 22.9043 33.0659 22.5409 33.6862C22.1776 34.3065 21.9718 35.0063 21.9415 35.7246C21.9113 36.4428 22.0576 37.1575 22.3676 37.8061C22.6776 38.4546 23.1418 39.0174 23.7196 39.445C24.2975 39.8726 24.9713 40.152 25.6822 40.2589C26.3931 40.3657 27.1193 40.2967 27.7974 40.0578C28.4754 39.819 29.0845 39.4176 29.5714 38.8888C30.0584 38.3599 30.4083 37.7198 30.5905 37.0244C30.6347 36.8512 30.7445 36.7019 30.8967 36.6081C31.0489 36.5142 31.2315 36.4832 31.4062 36.5216C31.5808 36.5599 31.7337 36.6646 31.8326 36.8135C31.9315 36.9625 31.9687 37.144 31.9362 37.3198C31.6736 38.4561 31.0713 39.4855 30.2094 40.2711C29.3475 41.0568 28.2669 41.5615 27.1113 41.7181L26.1594 41.7837Z" fill="#3F232C"/>
</svg>
