<svg width="49" height="60" viewBox="0 0 49 60" fill="none" xmlns="http://www.w3.org/2000/svg">
<path d="M24.0824 45.2407C10.7339 45.2407 0 48.6811 0 52.6719C0 56.6626 10.6995 59.9998 24.0824 59.9998C37.4653 59.9998 48.1647 56.5594 48.1647 52.603C48.1647 48.6467 37.3965 45.2407 24.0824 45.2407Z" fill="#D8D9DA"/>
<path d="M38.3954 0.723145H9.70297C6.9289 0.723145 4.68005 2.97197 4.68005 5.74603V49.3695C4.68005 52.1436 6.9289 54.3924 9.70297 54.3924H38.3954C41.1694 54.3924 43.4182 52.1436 43.4182 49.3695V5.74603C43.4182 2.97197 41.1694 0.723145 38.3954 0.723145Z" fill="#D9B1B5"/>
<path d="M38.3955 55.1486H9.70305C8.94856 55.1486 8.20145 55 7.50439 54.7113C6.80733 54.4225 6.17394 53.9993 5.64043 53.4658C5.10693 52.9323 4.68371 52.299 4.39498 51.6019C4.10625 50.9048 3.95764 50.1577 3.95764 49.4032V5.74536C3.95764 4.22159 4.56297 2.76024 5.64043 1.68278C6.7179 0.605314 8.17929 0 9.70305 0H38.3955C39.9192 0 41.3806 0.605314 42.458 1.68278C43.5355 2.76024 44.1408 4.22159 44.1408 5.74536V49.4032C44.1408 50.1577 43.9922 50.9048 43.7035 51.6019C43.4147 52.299 42.9915 52.9323 42.458 53.4658C41.9245 53.9993 41.2912 54.4225 40.5941 54.7113C39.8971 55 39.1499 55.1486 38.3955 55.1486ZM9.70305 1.51374C9.13992 1.51373 8.58235 1.6252 8.06252 1.84174C7.54269 2.05827 7.07087 2.37558 6.67428 2.77537C6.27769 3.17515 5.96418 3.64951 5.75183 4.17106C5.53948 4.69262 5.43247 5.25106 5.43701 5.81417V49.4032C5.43701 50.5347 5.88648 51.6198 6.68651 52.4198C7.48654 53.2198 8.57163 53.6693 9.70305 53.6693H38.3955C39.5301 53.6693 40.6187 53.2209 41.4242 52.4219C42.2297 51.6228 42.6868 50.5378 42.6959 49.4032V5.74536C42.6778 4.61678 42.2167 3.54055 41.4122 2.74888C40.6077 1.95722 39.5242 1.5136 38.3955 1.51374H9.70305Z" fill="#4C3037"/>
<path d="M38.3952 7.91309H9.70276V47.2361H38.3952V7.91309Z" fill="white"/>
<path d="M38.3961 47.9587H9.70366C9.51205 47.9587 9.32827 47.8825 9.19278 47.7471C9.05729 47.6116 8.98117 47.4278 8.98117 47.2362V7.91313C8.97651 7.8154 8.99173 7.71774 9.02595 7.62607C9.06016 7.53441 9.11267 7.45066 9.18023 7.37988C9.24779 7.30911 9.329 7.25279 9.41898 7.21435C9.50895 7.17591 9.60582 7.15614 9.70366 7.15625H38.3961C38.5968 7.15625 38.7893 7.236 38.9313 7.37794C39.0732 7.51988 39.1529 7.71239 39.1529 7.91313V47.2362C39.1531 47.334 39.1333 47.4309 39.0948 47.5208C39.0564 47.6108 39.0001 47.6921 38.9293 47.7596C38.8585 47.8272 38.7748 47.8797 38.6831 47.9139C38.5914 47.9481 38.4938 47.9633 38.3961 47.9587ZM10.3229 46.5137H37.8456V8.67001H10.3229V46.5137Z" fill="#4C3037"/>
<path d="M28.4536 51.5363H19.8527C19.6611 51.5363 19.4773 51.4601 19.3419 51.3246C19.2064 51.1892 19.1302 51.0054 19.1302 50.8138C19.1302 50.6222 19.2064 50.4384 19.3419 50.3029C19.4773 50.1674 19.6611 50.0913 19.8527 50.0913H28.4536C28.6452 50.0913 28.8289 50.1674 28.9644 50.3029C29.0999 50.4384 29.176 50.6222 29.176 50.8138C29.176 51.0054 29.0999 51.1892 28.9644 51.3246C28.8289 51.4601 28.6452 51.5363 28.4536 51.5363Z" fill="#4C3037"/>
<path d="M19.8869 4.95406C19.698 4.94565 19.519 4.86683 19.3853 4.73312C19.2516 4.59941 19.1728 4.4205 19.1644 4.23159C19.1598 4.13838 19.1741 4.04519 19.2066 3.95769C19.2391 3.8702 19.289 3.79023 19.3534 3.72265C19.4177 3.65506 19.4952 3.60129 19.581 3.56458C19.6668 3.52787 19.7592 3.509 19.8525 3.50912C19.9502 3.50446 20.0479 3.5197 20.1395 3.55391C20.2312 3.58813 20.315 3.6406 20.3857 3.70816C20.4565 3.77571 20.5128 3.85694 20.5513 3.94692C20.5897 4.03689 20.6095 4.13375 20.6094 4.23159C20.601 4.4205 20.5221 4.59941 20.3884 4.73312C20.2547 4.86683 20.0758 4.94565 19.8869 4.95406Z" fill="#4C3037"/>
<path d="M25.6333 4.95421C25.4349 4.95496 25.2434 4.88111 25.0968 4.74729C24.9503 4.61347 24.8593 4.42946 24.8421 4.23175C24.8421 4.04013 24.9182 3.85636 25.0537 3.72087C25.1892 3.58538 25.3729 3.50928 25.5645 3.50928C25.7561 3.50928 25.9399 3.58538 26.0754 3.72087C26.2109 3.85636 26.287 4.04013 26.287 4.23175C26.2805 4.40986 26.2115 4.57998 26.0919 4.71214C25.9723 4.84431 25.8099 4.93003 25.6333 4.95421ZM22.7778 4.95421C22.5794 4.95496 22.3879 4.88111 22.2413 4.74729C22.0948 4.61347 22.0038 4.42946 21.9866 4.23175C21.9819 4.13853 21.9962 4.04534 22.0287 3.95785C22.0612 3.87036 22.1111 3.79038 22.1755 3.7228C22.2399 3.65522 22.3173 3.60145 22.4031 3.56474C22.4889 3.52803 22.5813 3.50916 22.6746 3.50928C22.8662 3.50928 23.05 3.58538 23.1855 3.72087C23.321 3.85636 23.3971 4.04013 23.3971 4.23175C23.3921 4.40484 23.3279 4.57098 23.2152 4.70246C23.1025 4.83394 22.9481 4.9228 22.7778 4.95421Z" fill="#4C3037"/>
<path d="M28.4544 4.95421C28.2595 4.95441 28.072 4.87941 27.931 4.74482C27.79 4.61024 27.7064 4.42646 27.6975 4.23175C27.6975 4.04013 27.7736 3.85636 27.9091 3.72087C28.0446 3.58538 28.2283 3.50928 28.42 3.50928C28.6116 3.50928 28.7953 3.58538 28.9308 3.72087C29.0663 3.85636 29.1424 4.04013 29.1424 4.23175C29.1427 4.41754 29.0713 4.59628 28.9431 4.73082C28.815 4.86536 28.64 4.94537 28.4544 4.95421Z" fill="#4C3037"/>
<path d="M33.6118 22.1561C33.6153 20.4681 33.1719 18.8091 32.3267 17.3479C31.4816 15.8866 30.2647 14.6751 28.7998 13.8364C27.3348 12.9976 25.674 12.5616 23.9859 12.5725C22.2979 12.5834 20.6429 13.0408 19.1889 13.8984C17.7349 14.756 16.5337 15.9831 15.7075 17.4551C14.8812 18.9272 14.4593 20.5917 14.4846 22.2795C14.5099 23.9674 14.9814 25.6185 15.8514 27.0652C16.7213 28.5118 17.9586 29.7025 19.4376 30.5161C18.8889 29.7558 18.5995 28.839 18.6119 27.9015C18.6496 26.7732 18.9643 25.6715 19.5282 24.6935C20.0922 23.7156 20.8882 22.8914 21.8459 22.2937C21.1291 21.5002 20.7256 20.473 20.7105 19.4038C20.5957 18.9 20.5959 18.3768 20.711 17.873C20.8261 17.3693 21.0532 16.8979 21.3755 16.4939C21.6977 16.09 22.1068 15.7638 22.5724 15.5396C23.038 15.3155 23.5481 15.199 24.0648 15.199C24.5816 15.199 25.0917 15.3155 25.5573 15.5396C26.0229 15.7638 26.432 16.09 26.7543 16.4939C27.0765 16.8979 27.3037 17.3693 27.4188 17.873C27.5339 18.3768 27.534 18.9 27.4192 19.4038C27.4079 20.4802 26.99 21.5125 26.2495 22.2937C27.2456 22.8668 28.0823 23.6802 28.6833 24.6598C29.2842 25.6393 29.6303 26.7538 29.6898 27.9015C29.7052 28.8449 29.4022 29.766 28.8297 30.5161C30.2999 29.6757 31.5185 28.4573 32.3593 26.9874C33.2002 25.5175 33.6326 23.8494 33.6118 22.1561Z" fill="#D9B1B5"/>
<path d="M24.0834 12.0068C21.8158 12.0361 19.621 12.8114 17.8381 14.213C16.0552 15.6146 14.7836 17.5643 14.2197 19.7609C13.6559 21.9575 13.8312 24.2787 14.7186 26.3657C15.6061 28.4527 17.1562 30.1893 19.1294 31.3071C20.7083 32.1712 22.4858 32.6073 24.2854 32.5721C26.085 32.537 27.8441 32.0318 29.3882 31.1068C30.9322 30.1818 32.2075 28.869 33.0875 27.2988C33.9674 25.7287 34.4214 23.9557 34.4045 22.1558C34.3593 19.4485 33.2521 16.8672 31.3214 14.9687C29.3907 13.0702 26.7912 12.0065 24.0834 12.0068ZM19.9894 30.103V29.8966V29.6902C19.9765 29.5874 19.9765 29.4833 19.9894 29.3805C19.9745 29.3125 19.9745 29.2421 19.9894 29.1741V28.7957C19.9712 28.6012 19.9712 28.4053 19.9894 28.2108C20.0195 27.2976 20.2547 26.4029 20.6775 25.593C21.1003 24.7831 21.7 24.0787 22.4321 23.532L22.9481 23.9104C23.4829 24.2166 24.0865 24.3823 24.7027 24.3921C25.3202 24.3919 25.9263 24.2255 26.4573 23.9104L26.9733 23.532C27.7054 24.0787 28.3051 24.7831 28.7279 25.593C29.1508 26.4029 29.3859 27.2976 29.416 28.2108C29.4342 28.4053 29.4342 28.6012 29.416 28.7957C29.416 28.7957 29.416 28.7957 29.416 29.0021C29.416 29.2085 29.416 29.2429 29.416 29.3461V29.5526V29.8622V30.0686V30.275C27.982 31.1377 26.334 31.5791 24.6608 31.5487C22.9876 31.5182 21.3568 31.0172 19.9551 30.103H19.9894ZM25.7692 21.9494L25.3908 22.2935C25.0863 22.5283 24.7231 22.675 24.3408 22.7175C23.9586 22.76 23.572 22.6966 23.2234 22.5343C22.9304 22.3822 22.6634 22.1849 22.4321 21.9494C21.8091 21.3031 21.4634 20.4389 21.4688 19.5412C21.4688 18.8477 21.7443 18.1827 22.2346 17.6923C22.725 17.202 23.39 16.9265 24.0834 16.9265C24.7769 16.9265 25.4419 17.202 25.9323 17.6923C26.4226 18.1827 26.6981 18.8477 26.6981 19.5412C26.6798 20.4342 26.3374 21.2901 25.7348 21.9494H25.7692ZM30.2416 28.6237C30.2416 28.4517 30.2416 28.2452 30.2416 28.0388C30.2573 27.7523 30.2573 27.4652 30.2416 27.1787C30.2416 27.1787 30.2416 27.0067 30.2416 26.9035C30.2582 26.7089 30.2582 26.5132 30.2416 26.3186V25.9746C30.1999 25.7978 30.1424 25.6251 30.0697 25.4586C30.0639 25.344 30.0639 25.2291 30.0697 25.1145C29.969 24.965 29.8881 24.8031 29.8288 24.6329L29.6224 24.3233L29.3128 23.876L29.1064 23.5664L28.7623 23.1535L28.5215 22.8783L28.0743 22.4655L27.5238 22.1558C27.6594 21.9926 27.7643 21.8061 27.8334 21.6054L28.0398 21.0893C28.0398 21.0893 28.0398 20.7109 28.0398 20.4701C28.0567 20.264 28.0567 20.0569 28.0398 19.8508C28.0919 19.284 28.0253 18.7125 27.8441 18.1728C27.6629 17.6332 27.3712 17.1373 26.9876 16.7167C26.604 16.2962 26.1368 15.9603 25.616 15.7305C25.0953 15.5006 24.5323 15.3819 23.963 15.3819C23.3938 15.3819 22.8308 15.5006 22.31 15.7305C21.7893 15.9603 21.3221 16.2962 20.9385 16.7167C20.5549 17.1373 20.2631 17.6332 20.0819 18.1728C19.9008 18.7125 19.8341 19.284 19.8862 19.8508C19.8692 20.0569 19.8692 20.264 19.8862 20.4701C19.8702 20.6762 19.8702 20.8832 19.8862 21.0893C19.9184 21.2845 19.9885 21.4715 20.0926 21.6398L20.6431 22.1558L20.4367 22.3278L19.9551 22.7407L19.7486 23.0159L19.3702 23.4288L19.1638 23.7384L18.8541 24.1856L18.6821 24.4953C18.6821 24.6673 18.5101 24.8393 18.4413 24.9769C18.433 25.0914 18.433 25.2064 18.4413 25.3209C18.3578 25.4867 18.2888 25.6594 18.2349 25.837V26.181C18.2183 26.3756 18.2183 26.5713 18.2349 26.7659C18.2349 26.7659 18.2349 26.7659 18.2349 27.0411C18.2022 27.3269 18.2022 27.6154 18.2349 27.9012C18.2166 28.0957 18.2166 28.2915 18.2349 28.4861C17.3782 27.6689 16.6957 26.6868 16.2286 25.5989C15.7615 24.511 15.5194 23.3398 15.517 22.1558C15.5146 20.6956 15.874 19.2576 16.5629 17.9702C17.2518 16.6827 18.2489 15.5859 19.465 14.7777C20.6812 13.9695 22.0786 13.4751 23.5324 13.3387C24.9862 13.2022 26.4511 13.4279 27.7964 13.9957C29.1417 14.5634 30.3255 15.4555 31.2419 16.5923C32.1584 17.729 32.7791 19.0751 33.0485 20.5102C33.3179 21.9453 33.2277 23.4248 32.786 24.8166C32.3442 26.2084 31.5646 27.469 30.5169 28.4861L30.2416 28.6237Z" fill="#4C3037"/>
<path d="M19.3353 35.0576V39.1172V43.1768H33.6128V39.1172V35.0576H19.3353Z" fill="#D9B1B5"/>
<path d="M33.6122 34.3345H14.484C14.2924 34.3345 14.1086 34.4106 13.9731 34.5461C13.8376 34.6816 13.7615 34.8653 13.7615 35.0569V43.1761C13.7615 43.3678 13.8376 43.5515 13.9731 43.687C14.1086 43.8225 14.2924 43.8986 14.484 43.8986H33.6122C33.8039 43.8986 33.9876 43.8225 34.1231 43.687C34.2586 43.5515 34.3347 43.3678 34.3347 43.1761V35.0569C34.3347 34.8653 34.2586 34.6816 34.1231 34.5461C33.9876 34.4106 33.8039 34.3345 33.6122 34.3345ZM32.8897 38.3941H20.0573V35.917H32.8897V38.3941ZM15.2064 35.917H18.6467V38.5317H15.2064V35.917ZM15.2064 39.9766H18.6467V42.5913H15.2064V39.9766ZM32.8897 42.5913H20.0573V39.9766H32.8897V42.5913Z" fill="#4C3037"/>
</svg>
