<svg width="60" height="60" viewBox="0 0 60 60" fill="none" xmlns="http://www.w3.org/2000/svg">
<path opacity="0.4" d="M30.143 4.37598C35.6198 4.37595 39.9215 4.37593 43.28 4.82745C46.7215 5.29018 49.4522 6.25778 51.5977 8.40325C53.7432 10.5488 54.7108 13.2794 55.1735 16.721C55.625 20.0796 55.625 24.3812 55.625 29.858V30.144C55.625 35.6207 55.625 39.9225 55.1735 43.281C54.7108 46.7225 53.7432 49.4532 51.5977 51.5987C49.4522 53.7442 46.7215 54.7117 43.28 55.1745C39.9215 55.626 35.6198 55.626 30.143 55.626H29.857C24.3802 55.626 20.0786 55.626 16.7201 55.1745C13.2784 54.7117 10.5478 53.7442 8.40228 51.5987C6.2568 49.4532 5.2892 46.7225 4.82648 43.281C4.37495 39.9225 4.37498 35.6207 4.375 30.144V29.858C4.37498 24.3813 4.37495 20.0796 4.82648 16.721C5.2892 13.2794 6.2568 10.5488 8.40228 8.40325C10.5478 6.25778 13.2784 5.29018 16.7201 4.82745C20.0786 4.37593 24.3803 4.37595 29.857 4.37598H30.143Z" fill="#155FFF"/>
<path fill-rule="evenodd" clip-rule="evenodd" d="M38.1063 23.3679C37.205 24.4137 37.322 25.9923 38.3678 26.8938L41.4343 29.5368C41.638 29.7125 41.814 29.864 41.969 30C41.814 30.136 41.638 30.2878 41.4343 30.4635L38.3678 33.1065C37.322 34.0078 37.205 35.5865 38.1063 36.6323C39.0078 37.678 40.5863 37.7953 41.6323 36.8938L44.6985 34.2508C44.7293 34.2243 44.7603 34.1975 44.7913 34.171C45.3538 33.6865 45.9515 33.1715 46.3885 32.6778C46.8828 32.1195 47.5 31.2335 47.5 30C47.5 28.7665 46.8828 27.8805 46.3885 27.3223C45.9515 26.8285 45.3538 26.3138 44.7913 25.8293C44.7603 25.8025 44.7293 25.7758 44.6985 25.7493L41.6323 23.1064C40.5863 22.205 39.0078 22.322 38.1063 23.3679Z" fill="#0F0D0D"/>
<path fill-rule="evenodd" clip-rule="evenodd" d="M21.8936 23.3679C22.7951 24.4137 22.678 25.9923 21.6322 26.8938L18.5659 29.5368C18.3619 29.7125 18.1861 29.864 18.031 30C18.1861 30.136 18.3619 30.2878 18.5659 30.4635L21.6322 33.1065C22.678 34.0078 22.7951 35.5865 21.8936 36.6323C20.9922 37.678 19.4136 37.7953 18.3678 36.8938L15.3015 34.2508C15.2707 34.2243 15.2398 34.1975 15.2088 34.171C14.6462 33.6865 14.0485 33.1715 13.6115 32.6778C13.1173 32.1195 12.5 31.2335 12.5 30C12.5 28.7665 13.1173 27.8805 13.6115 27.3223C14.0485 26.8285 14.6463 26.3138 15.2088 25.8293C15.2398 25.8025 15.2707 25.7758 15.3015 25.7493L18.3678 23.1064C19.4136 22.205 20.9922 22.322 21.8936 23.3679Z" fill="#0F0D0D"/>
<path fill-rule="evenodd" clip-rule="evenodd" d="M33.2912 20.128C34.601 20.5646 35.309 21.9804 34.8725 23.2903L29.8725 38.2903C29.4357 39.6 28.02 40.308 26.71 39.8715C25.4002 39.4348 24.6923 38.019 25.129 36.709L30.129 21.7091C30.5655 20.3993 31.9815 19.6914 33.2912 20.128Z" fill="#0F0D0D"/>
</svg>
