<svg width="60" height="54" viewBox="0 0 60 54" fill="none" xmlns="http://www.w3.org/2000/svg">
<path d="M29.8641 39.6323C17.5697 39.6323 7.68341 42.801 7.68341 46.4767C7.68341 50.1523 17.6647 53.2893 29.8641 53.2893C42.0635 53.2893 52.0449 50.1206 52.0449 46.4767C52.0449 42.8327 42.1586 39.6323 29.8641 39.6323Z" fill="#D8D9DA"/>
<path d="M0.745728 9.68848V40.8683C0.745711 41.3869 0.848382 41.9004 1.04782 42.3792C1.24726 42.858 1.53951 43.2926 1.90773 43.6579C2.27595 44.0231 2.71284 44.3119 3.19322 44.5075C3.67359 44.703 4.18793 44.8016 4.70657 44.7974H46.1529V9.68848H0.745728Z" fill="#76C5D4"/>
<path d="M46.1514 45.4949H4.70508C4.09224 45.5033 3.48384 45.3898 2.91522 45.1611C2.3466 44.9324 1.8291 44.5929 1.39277 44.1625C0.95645 43.7321 0.610003 43.2192 0.373558 42.6538C0.137113 42.0883 0.0153844 41.4815 0.0154419 40.8686V9.68886C0.0162449 9.51205 0.0842048 9.34214 0.205562 9.21355C0.341875 9.10485 0.507192 9.03874 0.680864 9.02344H46.1514C46.325 9.03874 46.4904 9.10485 46.6267 9.21355C46.748 9.34214 46.816 9.51205 46.8168 9.68886V44.7978C46.817 44.9773 46.7479 45.15 46.6239 45.2798C46.5 45.4097 46.3307 45.4867 46.1514 45.4949ZM1.40966 10.386V40.8686C1.40966 41.709 1.7435 42.515 2.33774 43.1092C2.93198 43.7035 3.73795 44.0373 4.57834 44.0373H45.4543V10.386H1.40966Z" fill="#274242"/>
<path d="M0.746129 40.8682C0.693921 40.2477 0.77107 39.6231 0.972694 39.034C1.17432 38.4449 1.49603 37.904 1.91747 37.4456C2.33891 36.9872 2.8509 36.6213 3.42106 36.371C3.99122 36.1207 4.60712 35.9914 5.22981 35.9914C5.85249 35.9914 6.46839 36.1207 7.03855 36.371C7.60871 36.6213 8.1207 36.9872 8.54214 37.4456C8.96358 37.904 9.28529 38.4449 9.48692 39.034C9.68854 39.6231 9.76569 40.2477 9.71348 40.8682V5.56916C9.76569 4.94867 9.68854 4.3241 9.48692 3.73496C9.28529 3.14583 8.96358 2.60495 8.54214 2.14656C8.1207 1.68817 7.60871 1.32224 7.03855 1.07193C6.46839 0.821622 5.85249 0.692383 5.22981 0.692383C4.60712 0.692383 3.99122 0.821622 3.42106 1.07193C2.8509 1.32224 2.33891 1.68817 1.91747 2.14656C1.49603 2.60495 1.17432 3.14583 0.972694 3.73496C0.77107 4.3241 0.693921 4.94867 0.746129 5.56916V40.8682Z" fill="#76C5D4"/>
<path d="M9.712 41.5337C9.53551 41.5337 9.36626 41.4636 9.24147 41.3388C9.11668 41.214 9.04657 41.0447 9.04657 40.8682C9.09496 40.3376 9.03221 39.8027 8.86232 39.2976C8.69243 38.7926 8.41913 38.3285 8.05986 37.935C7.70059 37.5414 7.26324 37.2271 6.77571 37.0121C6.28818 36.797 5.76117 36.6859 5.22832 36.6859C4.69546 36.6859 4.16846 36.797 3.68092 37.0121C3.19339 37.2271 2.75604 37.5414 2.39677 37.935C2.0375 38.3285 1.7642 38.7926 1.59431 39.2976C1.42442 39.8027 1.36167 40.3376 1.41006 40.8682C1.41006 41.0447 1.33995 41.214 1.21516 41.3388C1.09037 41.4636 0.92112 41.5337 0.744639 41.5337C0.653072 41.5379 0.561562 41.5241 0.475352 41.4929C0.389141 41.4618 0.309921 41.4139 0.242227 41.3521C0.174532 41.2903 0.119692 41.2157 0.080846 41.1327C0.0420002 41.0497 0.0199116 40.9598 0.0158438 40.8682V5.56919C-0.0399078 4.85904 0.0518403 4.14503 0.28532 3.47205C0.518801 2.79906 0.888965 2.18165 1.37255 1.65862C1.85613 1.13558 2.44268 0.718218 3.09533 0.432782C3.74797 0.147347 4.45261 0 5.16494 0C5.87728 0 6.58191 0.147347 7.23456 0.432782C7.8872 0.718218 8.47375 1.13558 8.95734 1.65862C9.44092 2.18165 9.81108 2.79906 10.0446 3.47205C10.278 4.14503 10.3698 4.85904 10.314 5.56919V40.8682C10.3148 41.0343 10.2535 41.1946 10.1421 41.3177C10.0307 41.4408 9.87727 41.5178 9.712 41.5337ZM5.24416 35.7033C5.95911 35.7084 6.66542 35.86 7.31944 36.1489C7.97346 36.4377 8.56128 36.8576 9.04657 37.3827V5.69593C8.9597 4.74329 8.51986 3.85754 7.8134 3.21258C7.10694 2.56761 6.1849 2.21003 5.22832 2.21003C4.27173 2.21003 3.34969 2.56761 2.64323 3.21258C1.93678 3.85754 1.49693 4.74329 1.41006 5.69593V37.3827C1.90018 36.8553 2.49336 36.4341 3.15286 36.1452C3.81237 35.8563 4.52417 35.7059 5.24416 35.7033Z" fill="#274242"/>
<path d="M57.6859 6.45654C56.0388 6.83703 54.3265 6.83703 52.6794 6.45654L51.2218 9.62522C52.3794 10.4516 53.8003 10.8238 55.2143 10.6709C56.6284 10.8238 58.0493 10.4516 59.2069 9.62522L57.7493 6.45654H57.6859Z" fill="white"/>
<path d="M55.1825 1.06982L52.6793 6.45658C54.3264 6.83706 56.0386 6.83706 57.6858 6.45658L55.1825 1.06982Z" fill="#76C5D4"/>
<path d="M59.1759 9.72021C58.0184 10.5466 56.5974 10.9188 55.1834 10.7659C53.7693 10.9188 52.3484 10.5466 51.1909 9.72021V38.777C52.33 39.6436 53.7629 40.0302 55.1834 39.8543C56.6034 40.0235 58.0338 39.6375 59.1759 38.777V9.72021Z" fill="#76C5D4"/>
<path d="M55.1834 39.9493C53.7629 40.1251 52.33 39.7385 51.1909 38.8719V43.4348C51.1909 44.1953 52.9653 44.7973 55.1834 44.7973C57.4015 44.7973 59.1759 44.1953 59.1759 43.4348V38.7769C58.0477 39.6711 56.616 40.0915 55.1834 39.9493Z" fill="white"/>
<path d="M59.8416 9.72036C59.8755 9.62833 59.8755 9.5272 59.8416 9.43517L58.3523 6.2665L55.849 0.911438C55.8074 0.784648 55.7267 0.674254 55.6186 0.59599C55.5105 0.517726 55.3805 0.475586 55.247 0.475586C55.1135 0.475586 54.9835 0.517726 54.8754 0.59599C54.7672 0.674254 54.6866 0.784648 54.6449 0.911438L52.1417 6.2665L50.6524 9.43517C50.6524 9.43517 50.6524 9.43518 50.6524 9.6253V43.4351C50.6524 44.861 53.0289 45.4947 55.342 45.4947C57.6552 45.4947 60 44.861 60 43.4351V9.72036H59.8416ZM55.1836 2.6859L56.7046 5.85458H53.5359L55.1836 2.6859ZM53.0606 7.2171H54.0112H56.2927H57.2433L58.2889 9.53024H58.0988H57.8453H57.4334H57.0531H53.8845H53.5042H53.0606H52.7754H52.5536L53.0606 7.2171ZM51.8882 10.9245L52.617 11.1463H53.219H53.4725H54.0429H54.3598V38.8722H53.5042H53.1557H52.9655H52.712H52.5219H52.3001H52.11H51.9199V10.9245H51.8882ZM58.5107 43.4034C57.5033 43.9834 56.3413 44.2379 55.1836 44.1322C54.0256 44.2443 52.8616 43.9893 51.8565 43.4034V39.9495L52.5536 40.1713H52.7437H53.3458H53.5993H54.1696H56.1342H56.7046H57.0531H57.6552H57.8453L58.5424 39.9495L58.5107 43.4034ZM58.5107 38.5236H58.3206H58.1305H57.9087H57.7186H57.4651H57.0531H56.7046H55.849V11.4314H56.1659H56.7363H57.0531H57.6552C57.8945 11.3813 58.128 11.307 58.3523 11.2096V38.8088L58.5107 38.5236Z" fill="#274242"/>
<path d="M29.2305 23.4409H14.9398V29.4297H29.2305V23.4409Z" fill="white"/>
<path d="M29.1997 30.0943H14.9407C14.7612 30.0945 14.5885 30.0254 14.4586 29.9015C14.3288 29.7775 14.2518 29.6082 14.2436 29.4289V23.4401C14.2435 23.35 14.2617 23.2608 14.2971 23.1779C14.3325 23.095 14.3844 23.0202 14.4496 22.958C14.5147 22.8958 14.5919 22.8474 14.6763 22.8159C14.7607 22.7844 14.8507 22.7704 14.9407 22.7747H29.1997C29.3762 22.7747 29.5455 22.8448 29.6703 22.9696C29.7951 23.0944 29.8652 23.2636 29.8652 23.4401V29.4289C29.8652 29.6054 29.7951 29.7746 29.6703 29.8994C29.5455 30.0242 29.3762 30.0943 29.1997 30.0943ZM15.6061 28.7318H28.5343V24.1055H15.6061V28.7318Z" fill="#274242"/>
<path d="M40.9882 23.4409H33.4784V29.4297H40.9882V23.4409Z" fill="white"/>
<path d="M40.9883 30.0945H33.4785C33.3021 30.0945 33.1328 30.0244 33.008 29.8996C32.8832 29.7748 32.8131 29.6056 32.8131 29.4291V23.4403C32.8131 23.2638 32.8832 23.0946 33.008 22.9698C33.1328 22.845 33.3021 22.7749 33.4785 22.7749H40.9883C41.1648 22.7749 41.334 22.845 41.4588 22.9698C41.5836 23.0946 41.6537 23.2638 41.6537 23.4403V29.4291C41.6537 29.6056 41.5836 29.7748 41.4588 29.8996C41.334 30.0244 41.1648 30.0945 40.9883 30.0945ZM34.144 28.732H40.3229V24.1057H34.144V28.732Z" fill="#274242"/>
<path d="M40.9863 13.6494H14.9398V19.6382H40.9863V13.6494Z" fill="white"/>
<path d="M40.9872 20.304H14.9407C14.8492 20.304 14.7585 20.2859 14.6739 20.2509C14.5894 20.2159 14.5125 20.1645 14.4478 20.0998C14.383 20.0351 14.3317 19.9582 14.2967 19.8736C14.2616 19.7891 14.2436 19.6984 14.2436 19.6069V13.6497C14.2436 13.5582 14.2616 13.4676 14.2967 13.383C14.3317 13.2984 14.383 13.2216 14.4478 13.1568C14.5125 13.0921 14.5894 13.0407 14.6739 13.0057C14.7585 12.9707 14.8492 12.9526 14.9407 12.9526H40.9872C41.0773 12.9525 41.1665 12.9707 41.2494 13.0061C41.3323 13.0416 41.4071 13.0934 41.4693 13.1586C41.5315 13.2238 41.5799 13.3009 41.6114 13.3854C41.6429 13.4698 41.6569 13.5597 41.6526 13.6497V19.6069C41.6569 19.6969 41.6429 19.7868 41.6114 19.8712C41.5799 19.9557 41.5315 20.0328 41.4693 20.098C41.4071 20.1632 41.3323 20.2151 41.2494 20.2505C41.1665 20.2859 41.0773 20.3041 40.9872 20.304ZM15.6378 18.9414H40.3535V14.3152H15.6061L15.6378 18.9414Z" fill="#274242"/>
<path d="M29.199 33.8973H14.94C14.7635 33.8973 14.5942 33.8271 14.4694 33.7024C14.3446 33.5776 14.2745 33.4083 14.2745 33.2318C14.2745 33.0554 14.3446 32.8861 14.4694 32.7613C14.5942 32.6365 14.7635 32.5664 14.94 32.5664H29.199C29.3755 32.5664 29.5447 32.6365 29.6695 32.7613C29.7943 32.8861 29.8644 33.0554 29.8644 33.2318C29.8644 33.4083 29.7943 33.5776 29.6695 33.7024C29.5447 33.8271 29.3755 33.8973 29.199 33.8973Z" fill="#274242"/>
<path d="M29.199 37.6995H14.94C14.7635 37.6995 14.5942 37.6294 14.4694 37.5046C14.3446 37.3798 14.2745 37.2106 14.2745 37.0341C14.2745 36.8576 14.3446 36.6883 14.4694 36.5636C14.5942 36.4388 14.7635 36.3687 14.94 36.3687H29.199C29.3755 36.3687 29.5447 36.4388 29.6695 36.5636C29.7943 36.6883 29.8644 36.8576 29.8644 37.0341C29.8644 37.2106 29.7943 37.3798 29.6695 37.5046C29.5447 37.6294 29.3755 37.6995 29.199 37.6995Z" fill="#274242"/>
<path d="M29.199 41.5336H14.9399C14.8382 41.5557 14.7328 41.5547 14.6315 41.5307C14.5302 41.5068 14.4356 41.4604 14.3546 41.3951C14.2735 41.3297 14.2082 41.2471 14.1633 41.1532C14.1183 41.0593 14.095 40.9565 14.095 40.8524C14.095 40.7483 14.1183 40.6455 14.1633 40.5516C14.2082 40.4577 14.2735 40.3751 14.3546 40.3097C14.4356 40.2444 14.5302 40.198 14.6315 40.174C14.7328 40.15 14.8382 40.1491 14.9399 40.1711H29.199C29.2891 40.171 29.3783 40.1892 29.4611 40.2246C29.544 40.26 29.6188 40.3119 29.6811 40.3771C29.7433 40.4423 29.7916 40.5194 29.8231 40.6038C29.8546 40.6883 29.8687 40.7782 29.8644 40.8682C29.8644 41.0447 29.7943 41.214 29.6695 41.3387C29.5447 41.4635 29.3754 41.5336 29.199 41.5336Z" fill="#274242"/>
<path d="M40.9883 33.8973H33.4785C33.3021 33.8973 33.1328 33.8271 33.008 33.7024C32.8832 33.5776 32.8131 33.4083 32.8131 33.2318C32.8131 33.0554 32.8832 32.8861 33.008 32.7613C33.1328 32.6365 33.3021 32.5664 33.4785 32.5664H40.9883C41.1648 32.5664 41.334 32.6365 41.4588 32.7613C41.5836 32.8861 41.6537 33.0554 41.6537 33.2318C41.6537 33.4083 41.5836 33.5776 41.4588 33.7024C41.334 33.8271 41.1648 33.8973 40.9883 33.8973Z" fill="#274242"/>
<path d="M40.9883 37.6995H33.4785C33.3021 37.6995 33.1328 37.6294 33.008 37.5046C32.8832 37.3798 32.8131 37.2106 32.8131 37.0341C32.8131 36.8576 32.8832 36.6883 33.008 36.5636C33.1328 36.4388 33.3021 36.3687 33.4785 36.3687H40.9883C41.1648 36.3687 41.334 36.4388 41.4588 36.5636C41.5836 36.6883 41.6537 36.8576 41.6537 37.0341C41.6537 37.2106 41.5836 37.3798 41.4588 37.5046C41.334 37.6294 41.1648 37.6995 40.9883 37.6995Z" fill="#274242"/>
<path d="M40.986 41.5334H33.4762C33.2998 41.5334 33.1305 41.4633 33.0057 41.3385C32.8809 41.2137 32.8108 41.0445 32.8108 40.868C32.8065 40.778 32.8206 40.688 32.8521 40.6036C32.8836 40.5192 32.9319 40.442 32.9941 40.3769C33.0564 40.3117 33.1312 40.2598 33.2141 40.2244C33.2969 40.189 33.3861 40.1708 33.4762 40.1709H40.986C41.0761 40.1708 41.1653 40.189 41.2482 40.2244C41.3311 40.2598 41.4059 40.3117 41.4681 40.3769C41.5303 40.442 41.5786 40.5192 41.6102 40.6036C41.6417 40.688 41.6557 40.778 41.6514 40.868C41.6514 41.0445 41.5813 41.2137 41.4565 41.3385C41.3317 41.4633 41.1625 41.5334 40.986 41.5334Z" fill="#274242"/>
</svg>
