<svg width="60" height="57" viewBox="0 0 60 57" fill="none" xmlns="http://www.w3.org/2000/svg">
<path d="M30.0953 42.0518C17.4243 42.0518 7.29401 45.3091 7.29401 49.0876C7.29401 52.8661 17.522 56.0909 30.0953 56.0909C42.6686 56.0909 52.8966 52.8335 52.8966 49.0876C52.8966 45.3417 42.7337 42.0518 30.0953 42.0518Z" fill="#D8D9DA"/>
<path d="M56.9705 0.684082H3.02918C1.73392 0.684082 0.683899 1.7341 0.683899 3.02936V36.6124C0.683899 37.9077 1.73392 38.9577 3.02918 38.9577H56.9705C58.2658 38.9577 59.3158 37.9077 59.3158 36.6124V3.02936C59.3158 1.7341 58.2658 0.684082 56.9705 0.684082Z" fill="#F7BE56"/>
<path d="M44.6579 44.1045H15.3419V48.5996H44.6579V44.1045Z" fill="#F7BE56"/>
<path d="M44.658 49.2836H15.342C15.1606 49.2836 14.9866 49.2115 14.8583 49.0833C14.73 48.955 14.658 48.781 14.658 48.5996V44.1045C14.658 43.9231 14.73 43.749 14.8583 43.6208C14.9866 43.4925 15.1606 43.4204 15.342 43.4204H44.658C44.8394 43.4204 45.0134 43.4925 45.1416 43.6208C45.2699 43.749 45.342 43.9231 45.342 44.1045V48.5996C45.342 48.781 45.2699 48.955 45.1416 49.0833C45.0134 49.2115 44.8394 49.2836 44.658 49.2836ZM16.026 47.9155H43.9739V44.6582H16.026V47.9155Z" fill="#703407"/>
<path d="M55.2775 4.72314H4.72375V33.1271H55.2775V4.72314Z" fill="white"/>
<path d="M55.2745 33.8111H4.72072C4.5393 33.8111 4.36532 33.739 4.23703 33.6107C4.10875 33.4824 4.03668 33.3084 4.03668 33.127V4.7231C4.03668 4.54168 4.10875 4.3677 4.23703 4.23941C4.36532 4.11113 4.5393 4.03906 4.72072 4.03906H55.2745C55.4559 4.03906 55.6299 4.11113 55.7582 4.23941C55.8864 4.3677 55.9585 4.54168 55.9585 4.7231V33.127C55.9585 33.3084 55.8864 33.4824 55.7582 33.6107C55.6299 33.739 55.4559 33.8111 55.2745 33.8111ZM5.40475 32.443H54.6556V5.43972H5.40475V32.443Z" fill="#703407"/>
<path d="M35.1126 36.742H25.3406C25.1592 36.742 24.9852 36.6699 24.857 36.5416C24.7287 36.4133 24.6566 36.2393 24.6566 36.0579C24.6522 35.9654 24.6666 35.8729 24.699 35.7861C24.7314 35.6993 24.7811 35.6201 24.845 35.553C24.909 35.486 24.9859 35.4327 25.0711 35.3963C25.1563 35.3599 25.248 35.3412 25.3406 35.3413H35.1126C35.2053 35.3412 35.2969 35.3599 35.3821 35.3963C35.4673 35.4327 35.5442 35.486 35.6082 35.553C35.6722 35.6201 35.7218 35.6993 35.7542 35.7861C35.7866 35.8729 35.8011 35.9654 35.7967 36.0579C35.7967 36.2393 35.7246 36.4133 35.5963 36.5416C35.468 36.6699 35.294 36.742 35.1126 36.742Z" fill="#703407"/>
<path d="M34.8859 38.9575H25.1139V45.6025H34.8859V38.9575Z" fill="white"/>
<path d="M56.9707 0H3.02932C2.6315 0 2.23758 0.0783592 1.87005 0.230597C1.50251 0.382834 1.16857 0.605948 0.887271 0.887246C0.605973 1.16854 0.382834 1.50251 0.230597 1.87005C0.0783592 2.23758 0 2.6315 0 3.02932V36.6124C0 37.0102 0.0783592 37.4041 0.230597 37.7716C0.382834 38.1392 0.605973 38.4731 0.887271 38.7544C1.16857 39.0357 1.50251 39.2589 1.87005 39.4111C2.23758 39.5633 2.6315 39.6417 3.02932 39.6417H24.43V45.6026C24.4256 45.6951 24.44 45.7876 24.4724 45.8744C24.5048 45.9612 24.5545 46.0405 24.6184 46.1075C24.6824 46.1745 24.7593 46.2278 24.8445 46.2642C24.9297 46.3006 25.0214 46.3193 25.114 46.3192H34.886C34.9786 46.3193 35.0703 46.3006 35.1555 46.2642C35.2407 46.2278 35.3176 46.1745 35.3816 46.1075C35.4455 46.0405 35.4952 45.9612 35.5276 45.8744C35.56 45.7876 35.5744 45.6951 35.57 45.6026V39.6417H56.9707C57.3685 39.6417 57.7624 39.5633 58.13 39.4111C58.4975 39.2589 58.8314 39.0357 59.1127 38.7544C59.394 38.4731 59.6172 38.1392 59.7694 37.7716C59.9216 37.4041 60 37.0102 60 36.6124V3.02932C60 2.22589 59.6808 1.45535 59.1127 0.887246C58.5446 0.319139 57.7741 0 56.9707 0ZM34.1694 44.9186H25.7655V39.6417H34.1694V44.9186ZM58.5993 36.6124C58.5993 37.053 58.4243 37.4755 58.1128 37.7871C57.8012 38.0986 57.3787 38.2736 56.9381 38.2736H3.02932C2.58873 38.2736 2.16618 38.0986 1.85464 37.7871C1.5431 37.4755 1.36807 37.053 1.36807 36.6124V3.02932C1.36803 2.81267 1.41121 2.59819 1.49509 2.39844C1.57897 2.19869 1.70185 2.01766 1.85655 1.866C2.01125 1.71433 2.19468 1.59505 2.39605 1.51514C2.59743 1.43524 2.81271 1.39632 3.02932 1.40065H56.9707C57.1873 1.39632 57.4026 1.43524 57.6039 1.51514C57.8053 1.59505 57.9887 1.71433 58.1434 1.866C58.2981 2.01766 58.421 2.19869 58.5049 2.39844C58.5888 2.59819 58.632 2.81267 58.6319 3.02932L58.5993 36.6124Z" fill="#703407"/>
<path d="M43.9396 24.3321C45.2394 22.2333 45.7226 19.73 45.2972 17.2982C44.8719 14.8665 43.5677 12.6758 41.6326 11.1429C39.6975 9.60994 37.2665 8.84164 34.802 8.98406C32.3374 9.12647 30.0111 10.1697 28.2655 11.9153C26.5198 13.6609 25.4766 15.9872 25.3342 18.4518C25.1918 20.9164 25.9601 23.3473 27.4931 25.2824C29.026 27.2175 31.2167 28.5217 33.6484 28.9471C36.0802 29.3724 38.5835 28.8892 40.6822 27.5894L47.6855 34.5926C48.5494 34.5926 49.3779 34.2495 49.9888 33.6386C50.5996 33.0277 50.9428 32.1992 50.9428 31.3353L43.9396 24.3321Z" fill="#F7BE56"/>
<path d="M35.4393 12.4106C36.7278 12.4106 37.9874 12.7927 39.0587 13.5086C40.13 14.2244 40.965 15.2419 41.4581 16.4323C41.9512 17.6227 42.0802 18.9325 41.8288 20.1963C41.5775 21.46 40.957 22.6208 40.0459 23.5319C39.1348 24.443 37.974 25.0634 36.7103 25.3148C35.4466 25.5662 34.1367 25.4371 32.9463 24.9441C31.7559 24.451 30.7384 23.616 30.0226 22.5446C29.3068 21.4733 28.9247 20.2138 28.9247 18.9253C28.9247 17.1975 29.611 15.5405 30.8328 14.3187C32.0545 13.097 33.7115 12.4106 35.4393 12.4106Z" fill="white"/>
<path d="M47.7529 34.4955L49.3165 36.059C49.5264 36.2798 49.779 36.4555 50.059 36.5756C50.339 36.6958 50.6405 36.7577 50.9451 36.7577C51.2498 36.7577 51.5512 36.6958 51.8312 36.5756C52.1112 36.4555 52.3638 36.2798 52.5738 36.059C52.7988 35.8516 52.9784 35.5998 53.1013 35.3195C53.2241 35.0391 53.2876 34.7364 53.2876 34.4303C53.2876 34.1243 53.2241 33.8215 53.1013 33.5412C52.9784 33.2609 52.7988 33.0091 52.5738 32.8017L50.9777 31.2056C50.982 31.6333 50.902 32.0578 50.7423 32.4546C50.5825 32.8514 50.3462 33.2129 50.0467 33.5184C49.7473 33.8239 49.3906 34.0675 48.997 34.2351C48.6034 34.4027 48.1807 34.4912 47.7529 34.4955Z" fill="white"/>
<path d="M52.9969 32.4099L51.4009 30.8138L44.8862 24.2992C46.0069 22.2517 46.4239 19.8927 46.0733 17.5851C45.7227 15.2774 44.6237 13.1488 42.9454 11.5266C41.2671 9.90439 39.1025 8.87837 36.7842 8.60631C34.466 8.33424 32.1226 8.83119 30.1143 10.0208C28.1061 11.2103 26.5441 13.0266 25.6687 15.1904C24.7933 17.3542 24.6529 19.7456 25.2691 21.9969C25.8852 24.2483 27.2239 26.2349 29.0791 27.6513C30.9344 29.0677 33.2035 29.8355 35.5377 29.8366C37.3623 29.8262 39.1549 29.3557 40.7494 28.4686L47.2641 34.9832L48.8601 36.5793C49.4087 37.1322 50.1545 37.4445 50.9333 37.4476C51.7122 37.4506 52.4604 37.1442 53.0132 36.5956C53.5661 36.047 53.8785 35.3013 53.8815 34.5224C53.8846 33.7436 53.5781 32.9954 53.0295 32.4425L52.9969 32.4099ZM28.8601 25.6021C27.553 24.305 26.6597 22.6495 26.2929 20.8449C25.9262 19.0403 26.1025 17.1674 26.7997 15.463C27.4968 13.7585 28.6834 12.2989 30.2097 11.2685C31.7359 10.2381 33.5333 9.68317 35.3748 9.67378C37.037 9.67994 38.6675 10.1292 40.0983 10.9752C41.5291 11.8212 42.7084 13.0334 43.5148 14.4869C44.3212 15.9404 44.7255 17.5827 44.686 19.2444C44.6465 20.9062 44.1647 22.5273 43.2901 23.9409C42.9093 24.5335 42.4612 25.08 41.9546 25.5695C41.4645 26.066 40.9179 26.5033 40.3259 26.8725C38.5553 27.9967 36.4543 28.4834 34.3698 28.2525C32.2852 28.0215 30.3417 27.0866 28.8601 25.6021ZM41.8895 27.4588L42.1175 27.2959L42.8992 26.5793C43.1521 26.3416 43.3812 26.0797 43.5833 25.7976V25.6021V25.4392L49.7396 31.5956C49.7549 31.6598 49.7549 31.7268 49.7396 31.791C49.7581 31.8769 49.7581 31.9657 49.7396 32.0516C49.7455 32.1384 49.7455 32.2254 49.7396 32.3122C49.6718 32.4444 49.584 32.5653 49.479 32.6705L49.1533 32.9637H48.8927H48.5996H48.1435L41.9872 26.7748L41.8895 27.4588ZM51.922 35.5695C51.7768 35.7153 51.6042 35.8309 51.4141 35.9099C51.2241 35.9888 51.0203 36.0294 50.8145 36.0294C50.6088 36.0294 50.405 35.9888 50.2149 35.9099C50.0249 35.8309 49.8523 35.7153 49.7071 35.5695L49.023 34.9181L49.7071 34.5923C50.1436 34.3081 50.5109 33.9297 50.782 33.4848C50.9206 33.2788 51.0405 33.0608 51.1403 32.8334L51.8243 33.5174C52.1002 33.7776 52.2722 34.1292 52.3081 34.5067C52.3441 34.8842 52.2416 35.262 52.0198 35.5695H51.922Z" fill="#703407"/>
<path d="M20.7795 8.99023H9.0531V14.3323H20.7795V8.99023Z" fill="#F7BE56"/>
<path d="M20.7796 15.016H9.05324C8.87438 15.008 8.70497 14.9334 8.57838 14.8068C8.45178 14.6802 8.37716 14.5108 8.3692 14.3319V9.15279C8.3692 8.97137 8.44127 8.79738 8.56955 8.6691C8.69784 8.54082 8.87182 8.46875 9.05324 8.46875H20.7796C20.961 8.46875 21.135 8.54082 21.2633 8.6691C21.3916 8.79738 21.4637 8.97137 21.4637 9.15279V14.4948C21.4265 14.6468 21.3383 14.7815 21.2138 14.8763C21.0893 14.9712 20.9361 15.0205 20.7796 15.016ZM9.73727 13.6153H20.0956V9.67397H9.73727V13.6153Z" fill="#703407"/>
<path d="M20.7811 18.697H9.05475C8.8948 18.6623 8.75154 18.5739 8.6488 18.4465C8.54607 18.3191 8.49005 18.1604 8.49005 17.9967C8.49005 17.833 8.54607 17.6743 8.6488 17.5469C8.75154 17.4195 8.8948 17.3311 9.05475 17.2964H20.7811C20.9626 17.2964 21.1365 17.3685 21.2648 17.4967C21.3931 17.625 21.4652 17.799 21.4652 17.9804C21.4696 18.073 21.4552 18.1654 21.4228 18.2522C21.3904 18.339 21.3407 18.4183 21.2767 18.4853C21.2128 18.5523 21.1358 18.6056 21.0506 18.642C20.9655 18.6784 20.8738 18.6971 20.7811 18.697Z" fill="#703407"/>
<path d="M20.7796 22.3451H9.05324C8.87182 22.3451 8.69784 22.2731 8.56955 22.1448C8.44127 22.0165 8.3692 21.8425 8.3692 21.6611C8.37716 21.4822 8.45178 21.3128 8.57838 21.1863C8.70497 21.0597 8.87438 20.985 9.05324 20.9771H20.7796C20.961 20.9771 21.135 21.0491 21.2633 21.1774C21.3916 21.3057 21.4637 21.4797 21.4637 21.6611C21.4637 21.8425 21.3916 22.0165 21.2633 22.1448C21.135 22.2731 20.961 22.3451 20.7796 22.3451Z" fill="#703407"/>
<path d="M20.7796 26.0263H9.05324C8.87182 26.0263 8.69784 25.9542 8.56955 25.8259C8.44127 25.6976 8.3692 25.5237 8.3692 25.3422C8.3692 25.1608 8.44127 24.9868 8.56955 24.8586C8.69784 24.7303 8.87182 24.6582 9.05324 24.6582H20.7796C20.961 24.6582 21.135 24.7303 21.2633 24.8586C21.3916 24.9868 21.4637 25.1608 21.4637 25.3422C21.4637 25.5237 21.3916 25.6976 21.2633 25.8259C21.135 25.9542 20.961 26.0263 20.7796 26.0263Z" fill="#703407"/>
<path d="M18.5972 29.7065H9.05324C8.87182 29.7065 8.69784 29.6344 8.56955 29.5061C8.44127 29.3778 8.3692 29.2038 8.3692 29.0224C8.3692 28.841 8.44127 28.667 8.56955 28.5387C8.69784 28.4104 8.87182 28.3384 9.05324 28.3384H18.5972C18.7786 28.3384 18.9526 28.4104 19.0809 28.5387C19.2092 28.667 19.2812 28.841 19.2812 29.0224C19.2812 29.2038 19.2092 29.3778 19.0809 29.5061C18.9526 29.6344 18.7786 29.7065 18.5972 29.7065Z" fill="#703407"/>
<path d="M35.44 11.7912C34.4919 11.7912 33.5531 11.9785 32.6776 12.3423C31.8021 12.7061 31.0071 13.2392 30.3382 13.9112C29.6693 14.5831 29.1397 15.3805 28.7799 16.2577C28.42 17.1348 28.237 18.0744 28.2413 19.0225C28.2289 20.0229 28.4404 21.0134 28.8602 21.9215C29.4206 23.1815 30.3342 24.252 31.4904 25.0036C32.6466 25.7551 33.9959 26.1554 35.3749 26.156C37.2046 26.033 38.9193 25.2194 40.1718 23.8799C41.4243 22.5403 42.1211 20.7749 42.1211 18.941C42.1211 17.1072 41.4243 15.3418 40.1718 14.0022C38.9193 12.6627 37.2046 11.8491 35.3749 11.7261L35.44 11.7912ZM35.44 13.1593C36.6837 13.1642 37.8936 13.5645 38.8949 14.3023C39.8962 15.04 40.6369 16.0771 41.01 17.2635L39.5442 18.8271L38.1436 17.4915C38.0802 17.4268 38.004 17.376 37.9199 17.3423C37.8358 17.3087 37.7455 17.2929 37.655 17.2961C37.5623 17.299 37.4713 17.3208 37.3873 17.3599C37.3033 17.3991 37.2281 17.455 37.1664 17.5241L34.6908 20.3254L32.4433 18.4036C32.3073 18.2866 32.134 18.2223 31.9547 18.2223C31.7753 18.2223 31.602 18.2866 31.466 18.4036L29.7722 20.2928C29.7246 19.8489 29.7246 19.4012 29.7722 18.9573C29.7882 17.4469 30.3865 16.0009 31.4424 14.9207C32.4983 13.8405 33.9303 13.2096 35.44 13.1593ZM35.44 24.8531C34.3902 24.8535 33.3601 24.5689 32.4594 24.0296C31.5587 23.4904 30.8214 22.7167 30.326 21.7912L32.0524 19.902L34.2999 21.7912C34.4326 21.9149 34.6072 21.9836 34.7885 21.9836C34.9699 21.9836 35.1445 21.9149 35.2771 21.7912L37.7201 19.0225L39.0882 20.358C39.1565 20.4253 39.2382 20.4774 39.328 20.5111C39.4178 20.5448 39.5137 20.5592 39.6094 20.5534C39.6972 20.55 39.7833 20.5279 39.862 20.4886C39.9406 20.4493 40.0099 20.3936 40.0654 20.3254L41.2706 19.0551C41.262 20.5958 40.6439 22.0705 39.5514 23.1569C38.4589 24.2433 36.9807 24.8531 35.44 24.8531Z" fill="#703407"/>
</svg>
